<svg width="115" height="48" viewBox="0 0 115 48" fill="none" xmlns="http://www.w3.org/2000/svg">
<g clip-path="url(#clip0_91_492)">
<path d="M0 37.0151V10.1877H4.15609V14.2542C5.21628 12.3526 6.19532 11.0977 7.09321 10.4895C7.9622 9.89292 8.99726 9.57548 10.0566 9.58065C11.613 9.58065 13.1951 10.0693 14.8029 11.0465L13.2126 15.2717C12.196 14.6445 11.025 14.3016 9.82541 14.2801C8.84297 14.2712 7.88587 14.5869 7.10722 15.1769C6.27929 15.8048 5.67671 16.6767 5.38734 17.6654C4.85912 19.385 4.59986 21.1738 4.61847 22.9702V37.0151H0Z" fill="black"/>
<path d="M33.5727 28.3786L38.3453 28.9598C37.5922 31.7053 36.1981 33.8357 34.163 35.3511C32.1278 36.8664 29.5281 37.6235 26.3639 37.6223C22.3777 37.6223 19.2176 36.4151 16.8835 34.0007C14.5495 31.5863 13.3819 28.1947 13.3807 23.8258C13.3807 19.312 14.5606 15.8088 16.9203 13.3163C19.2801 10.8237 22.3421 9.57854 26.1065 9.58084C29.7494 9.58084 32.7268 10.8018 35.0387 13.2438C37.3505 15.6858 38.5035 19.1211 38.4977 23.5498C38.4977 23.8189 38.4895 24.2213 38.4732 24.757H18.1568C18.3285 27.7037 19.175 29.9601 20.6964 31.526C22.2178 33.0919 24.1163 33.8754 26.392 33.8766C28.0862 33.8766 29.5316 33.4385 30.7284 32.5624C31.9252 31.6863 32.8733 30.2917 33.5727 28.3786ZM18.4108 21.0251H33.627C33.4227 18.7682 32.8389 17.0752 31.8756 15.9462C30.4044 14.1964 28.4977 13.3209 26.1555 13.3197C24.034 13.3197 22.2505 14.0187 20.805 15.4168C19.3595 16.8148 18.5614 18.6843 18.4108 21.0251Z" fill="black"/>
<path d="M59.2939 33.7058C57.5846 35.1372 55.9388 36.1478 54.3567 36.7376C52.7279 37.3355 51.0019 37.6353 49.2636 37.6223C46.271 37.6223 43.9709 36.902 42.3631 35.4614C40.7553 34.0208 39.9514 32.1813 39.9514 29.9428C39.9443 28.7216 40.241 27.5173 40.8156 26.4351C41.3902 25.3529 42.2251 24.4256 43.2475 23.7344C44.2663 23.0615 45.3905 22.5581 46.5752 22.2443C47.9274 21.929 49.2986 21.6986 50.6805 21.5545C54.4075 21.1176 57.1514 20.5956 58.9121 19.9886C58.9279 19.366 58.9366 18.9694 58.9366 18.8021C58.9366 16.9499 58.5005 15.6444 57.6283 14.8856C56.4479 13.8589 54.6965 13.3456 52.3741 13.3456C50.2024 13.3456 48.5992 13.7198 47.5647 14.4683C46.5302 15.2167 45.7625 16.5435 45.2616 18.4486L40.7465 17.8415C41.1563 15.9387 41.8318 14.4022 42.7729 13.2317C43.714 12.0613 45.0737 11.16 46.8519 10.5276C48.6314 9.89643 50.6922 9.58083 53.0344 9.58083C55.3766 9.58083 57.267 9.85044 58.7055 10.3897C60.158 10.9277 61.2269 11.6055 61.9123 12.4229C62.6363 13.3257 63.1289 14.3869 63.3484 15.5168C63.5002 16.2929 63.5761 17.6909 63.5761 19.7109V25.7745C63.5761 30.0009 63.6742 32.6745 63.8704 33.7955C64.0711 34.9263 64.4661 36.0152 65.0386 37.0153H60.2187C59.7112 35.9757 59.398 34.8547 59.2939 33.7058ZM58.9104 23.5498C57.2337 24.2236 54.7193 24.7984 51.3671 25.2744C49.4685 25.5434 48.1258 25.8464 47.3388 26.1833C46.5949 26.485 45.9603 26.9999 45.5174 27.6612C44.9916 28.4724 44.7788 29.4424 44.9177 30.3949C45.0565 31.3474 45.5378 32.2193 46.274 32.8522C47.208 33.657 48.5724 34.0594 50.367 34.0594C52.0236 34.0892 53.6595 33.6933 55.1133 32.9108C56.4424 32.2025 57.5107 31.0993 58.166 29.7583C58.6623 28.7304 58.9104 27.2145 58.9104 25.2106V23.5498Z" fill="black"/>
<path d="M66.2628 29.0081L70.8288 28.2993C71.0856 30.1032 71.8002 31.4828 72.9725 32.4383C74.1448 33.3937 75.7823 33.8737 77.8852 33.8783C80.0044 33.8783 81.5778 33.4529 82.6053 32.6021C83.6328 31.7513 84.1459 30.7533 84.1447 29.6082C84.1447 28.5815 83.6917 27.7733 82.7857 27.1835C82.1516 26.7799 80.5754 26.266 78.0568 25.6417C74.6708 24.8001 72.3233 24.0718 71.0144 23.4567C69.8102 22.9294 68.79 22.0651 68.0806 20.9714C67.3713 19.8777 67.0041 18.6027 67.0247 17.3052C67.0158 16.1467 67.3024 15.0046 67.8584 13.9837C68.4071 12.975 69.1866 12.1059 70.1352 11.4451C70.8533 10.9231 71.8323 10.4811 73.0723 10.1189C74.3688 9.75067 75.7127 9.56943 77.062 9.58083C79.2011 9.58083 81.078 9.88378 82.6928 10.4897C84.3076 11.0956 85.5015 11.917 86.2745 12.9541C87.0427 13.9888 87.5728 15.3737 87.8647 17.1086L83.3496 17.7156C83.1453 16.336 82.551 15.2581 81.5667 14.4821C80.5824 13.706 79.1923 13.3185 77.3966 13.3197C75.275 13.3197 73.7618 13.6646 72.8569 14.3544C71.952 15.0443 71.4984 15.8525 71.4961 16.7792C71.4916 17.3596 71.6908 17.9237 72.06 18.3761C72.436 18.8648 73.0262 19.2672 73.8307 19.5833C74.2977 19.7523 75.6574 20.1398 77.9097 20.7457C81.179 21.6045 83.4559 22.3076 84.7402 22.8548C85.964 23.3489 87.0188 24.177 87.7807 25.2416C88.5163 26.2867 88.8841 27.5836 88.8841 29.1323C88.8805 30.6602 88.4113 32.1519 87.5372 33.4144C86.6393 34.7526 85.3439 35.7874 83.6509 36.5186C81.9578 37.2498 80.0418 37.616 77.9027 37.6171C74.3637 37.6171 71.6659 36.8928 69.8095 35.4442C67.953 33.9955 66.7708 31.8502 66.2628 29.0081Z" fill="black"/>
<path d="M91.548 47.3489L91.0348 43.0806C91.8942 43.3275 92.7826 43.4631 93.6777 43.4841C94.704 43.4841 95.5254 43.3157 96.1419 42.9788C96.759 42.6402 97.2794 42.1538 97.6551 41.5647C97.9458 41.1048 98.4129 39.9764 99.0562 38.1794C99.1426 37.9276 99.2798 37.5574 99.4678 37.0687L89.1345 10.1896H94.112L99.7848 25.7228C100.518 27.6946 101.177 29.764 101.76 31.9312C102.283 29.862 102.916 27.8213 103.657 25.8176L109.482 10.1879H114.099L103.734 37.4706C102.623 40.4184 101.759 42.4477 101.144 43.5583C100.327 45.0529 99.3861 46.152 98.3224 46.8557C97.2587 47.5593 95.993 47.9088 94.5253 47.9042C93.5086 47.8815 92.5027 47.6939 91.548 47.3489Z" fill="black"/>
</g>
<defs>
<clipPath id="clip0_91_492">
<rect width="114.172" height="48" fill="white"/>
</clipPath>
</defs>
</svg>












